<svg width="20" height="21" viewBox="0 0 20 21" fill="none" xmlns="http://www.w3.org/2000/svg">
<g id="fluent:money-20-regular">
<path id="Vector" d="M7 9.5C7 8.96957 7.21071 8.46086 7.58579 8.08579C7.96086 7.71071 8.46957 7.5 9 7.5C9.53043 7.5 10.0391 7.71071 10.4142 8.08579C10.7893 8.46086 11 8.96957 11 9.5C11 10.0304 10.7893 10.5391 10.4142 10.9142C10.0391 11.2893 9.53043 11.5 9 11.5C8.46957 11.5 7.96086 11.2893 7.58579 10.9142C7.21071 10.5391 7 10.0304 7 9.5ZM9 8.5C8.73478 8.5 8.48043 8.60536 8.29289 8.79289C8.10536 8.98043 8 9.23478 8 9.5C8 9.76522 8.10536 10.0196 8.29289 10.2071C8.48043 10.3946 8.73478 10.5 9 10.5C9.26522 10.5 9.51957 10.3946 9.70711 10.2071C9.89464 10.0196 10 9.76522 10 9.5C10 9.23478 9.89464 8.98043 9.70711 8.79289C9.51957 8.60536 9.26522 8.5 9 8.5ZM3.5 4.5C3.10218 4.5 2.72064 4.65804 2.43934 4.93934C2.15804 5.22064 2 5.60218 2 6V13C2 13.3978 2.15804 13.7794 2.43934 14.0607C2.72064 14.342 3.10218 14.5 3.5 14.5H14.5C14.8978 14.5 15.2794 14.342 15.5607 14.0607C15.842 13.7794 16 13.3978 16 13V6C16 5.60218 15.842 5.22064 15.5607 4.93934C15.2794 4.65804 14.8978 4.5 14.5 4.5H3.5ZM3 6C3 5.86739 3.05268 5.74021 3.14645 5.64645C3.24021 5.55268 3.36739 5.5 3.5 5.5H5V6.5C5 6.76522 4.89464 7.01957 4.70711 7.20711C4.51957 7.39464 4.26522 7.5 4 7.5H3V6ZM3 8.5H4C4.53043 8.5 5.03914 8.28929 5.41421 7.91421C5.78929 7.53914 6 7.03043 6 6.5V5.5H12V6.5C12 7.03043 12.2107 7.53914 12.5858 7.91421C12.9609 8.28929 13.4696 8.5 14 8.5H15V10.5H14C13.4696 10.5 12.9609 10.7107 12.5858 11.0858C12.2107 11.4609 12 11.9696 12 12.5V13.5H6V12.5C6 11.9696 5.78929 11.4609 5.41421 11.0858C5.03914 10.7107 4.53043 10.5 4 10.5H3V8.5ZM13 5.5H14.5C14.6326 5.5 14.7598 5.55268 14.8536 5.64645C14.9473 5.74021 15 5.86739 15 6V7.5H14C13.7348 7.5 13.4804 7.39464 13.2929 7.20711C13.1054 7.01957 13 6.76522 13 6.5V5.5ZM15 11.5V13C15 13.1326 14.9473 13.2598 14.8536 13.3536C14.7598 13.4473 14.6326 13.5 14.5 13.5H13V12.5C13 12.2348 13.1054 11.9804 13.2929 11.7929C13.4804 11.6054 13.7348 11.5 14 11.5H15ZM5 13.5H3.5C3.36739 13.5 3.24021 13.4473 3.14645 13.3536C3.05268 13.2598 3 13.1326 3 13V11.5H4C4.26522 11.5 4.51957 11.6054 4.70711 11.7929C4.89464 11.9804 5 12.2348 5 12.5V13.5ZM17 13C17 13.663 16.7366 14.2989 16.2678 14.7678C15.7989 15.2366 15.163 15.5 14.5 15.5H4.085C4.18844 15.7926 4.38008 16.0459 4.63351 16.225C4.88694 16.4041 5.18967 16.5002 5.5 16.5H14.5C15.4283 16.5 16.3185 16.1313 16.9749 15.4749C17.6313 14.8185 18 13.9283 18 13V8C18.0002 7.68967 17.9041 7.38694 17.725 7.13351C17.5459 6.88008 17.2926 6.68844 17 6.585V13Z" fill="#38A3A5"/>
</g>
</svg>
