<svg width="18" height="18" viewBox="0 0 18 18" fill="none" xmlns="http://www.w3.org/2000/svg">
<g id="ion:time">
<path id="Vector" d="M9 1.6875C4.9616 1.6875 1.6875 4.9616 1.6875 9C1.6875 13.0384 4.9616 16.3125 9 16.3125C13.0384 16.3125 16.3125 13.0384 16.3125 9C16.3125 4.9616 13.0384 1.6875 9 1.6875ZM12.375 10.125H9C8.85082 10.125 8.70774 10.0657 8.60225 9.96025C8.49676 9.85476 8.4375 9.71168 8.4375 9.5625V4.5C8.4375 4.35082 8.49676 4.20774 8.60225 4.10225C8.70774 3.99676 8.85082 3.9375 9 3.9375C9.14918 3.9375 9.29226 3.99676 9.39775 4.10225C9.50324 4.20774 9.5625 4.35082 9.5625 4.5V9H12.375C12.5242 9 12.6673 9.05926 12.7727 9.16475C12.8782 9.27024 12.9375 9.41332 12.9375 9.5625C12.9375 9.71168 12.8782 9.85476 12.7727 9.96025C12.6673 10.0657 12.5242 10.125 12.375 10.125Z" fill="#38A3A5"/>
</g>
</svg>
