<svg width="20" height="21" viewBox="0 0 20 21" fill="none" xmlns="http://www.w3.org/2000/svg">
<g id="wi:time-4">
<path id="Vector" d="M2.49414 10.1467C2.49414 8.78671 2.83414 7.52671 3.50747 6.37338C4.18081 5.22004 5.09414 4.30671 6.24747 3.63338C7.40081 2.96004 8.65414 2.62671 10.0075 2.62671C11.0208 2.62671 11.9941 2.82671 12.9208 3.22004C13.8475 3.61338 14.6408 4.15338 15.3141 4.82004C15.9875 5.48671 16.5208 6.28671 16.9141 7.22004C17.3075 8.15338 17.5075 9.12004 17.5075 10.1467C17.5075 11.16 17.3075 12.1334 16.9141 13.06C16.5208 13.9867 15.9808 14.7867 15.3141 15.4534C14.6475 16.12 13.8475 16.6534 12.9208 17.0467C11.9941 17.44 11.0275 17.64 10.0075 17.64C8.98747 17.64 8.00747 17.44 7.08081 17.0467C6.15414 16.6534 5.35414 16.1134 4.68081 15.4467C4.00747 14.78 3.48081 13.98 3.08081 13.06C2.68081 12.14 2.49414 11.1667 2.49414 10.1467ZM4.14747 10.1467C4.14747 11.7267 4.72081 13.1 5.87414 14.2667C7.02747 15.42 8.40081 15.9934 10.0075 15.9934C11.0608 15.9934 12.0408 15.7334 12.9341 15.2067C13.8275 14.68 14.5475 13.9734 15.0741 13.0734C15.6008 12.1734 15.8675 11.2 15.8675 10.1467C15.8675 9.09338 15.6008 8.11338 15.0741 7.21338C14.5475 6.31338 13.8341 5.60004 12.9341 5.07338C12.0341 4.54671 11.0608 4.28671 10.0075 4.28671C8.95414 4.28671 7.97414 4.54671 7.08081 5.07338C6.18747 5.60004 5.46747 6.31338 4.93414 7.21338C4.40081 8.11338 4.14747 9.09338 4.14747 10.1467ZM9.42747 10.1467V5.70671C9.42747 5.55338 9.48081 5.42004 9.58747 5.31338C9.69414 5.20671 9.82747 5.15338 9.98081 5.15338C10.1341 5.15338 10.2675 5.20671 10.3741 5.31338C10.4808 5.42004 10.5341 5.55338 10.5341 5.70671V9.80671L12.9275 11.2C13.0608 11.28 13.1408 11.3934 13.1808 11.54C13.2208 11.6867 13.2008 11.8267 13.1208 11.9534C13.0141 12.14 12.8541 12.2334 12.6408 12.2334C12.5275 12.2334 12.4341 12.2067 12.3608 12.1534L9.81414 10.6667C9.70081 10.6334 9.60747 10.5667 9.53414 10.4734C9.46081 10.38 9.42747 10.2734 9.42747 10.1467Z" fill="#38A3A5"/>
</g>
</svg>
