<svg width="20" height="21" viewBox="0 0 20 21" fill="none" xmlns="http://www.w3.org/2000/svg">
<g id="lets-icons:back-light">
<path id="Vector" d="M3.33526 8.83374L3.04026 9.12874L2.74609 8.83374L3.04026 8.53874L3.33526 8.83374ZM17.0853 15.5004C17.0853 15.6109 17.0414 15.7169 16.9632 15.795C16.8851 15.8732 16.7791 15.9171 16.6686 15.9171C16.5581 15.9171 16.4521 15.8732 16.374 15.795C16.2958 15.7169 16.2519 15.6109 16.2519 15.5004H17.0853ZM7.20693 13.2954L3.04026 9.12874L3.63026 8.53874L7.79693 12.7054L7.20693 13.2954ZM3.04026 8.53874L7.20693 4.37207L7.79693 4.96207L3.63026 9.12874L3.04026 8.53874ZM3.33526 8.41707H11.6686V9.2504H3.33526V8.41707ZM17.0853 13.8337V15.5004H16.2519V13.8337H17.0853ZM11.6686 8.41707C13.1052 8.41707 14.4829 8.98775 15.4988 10.0036C16.5146 11.0194 17.0853 12.3971 17.0853 13.8337H16.2519C16.2519 12.6182 15.769 11.4524 14.9095 10.5928C14.05 9.73329 12.8842 9.2504 11.6686 9.2504V8.41707Z" fill="#333333"/>
</g>
</svg>
