<svg width="25" height="25" viewBox="0 0 25 25" fill="none" xmlns="http://www.w3.org/2000/svg">
<path d="M4.16537 21.8747C3.59245 21.8747 3.10182 21.6705 2.69349 21.2622C2.28516 20.8538 2.08134 20.3636 2.08203 19.7913V8.33301C2.08203 7.76009 2.2862 7.26947 2.69453 6.86113C3.10287 6.4528 3.59314 6.24898 4.16537 6.24968H8.33203V4.16634C8.33203 3.59343 8.5362 3.1028 8.94453 2.69447C9.35287 2.28613 9.84314 2.08232 10.4154 2.08301H14.582C15.155 2.08301 15.6456 2.28718 16.0539 2.69551C16.4622 3.10384 16.6661 3.59412 16.6654 4.16634V6.24968H20.832C21.405 6.24968 21.8956 6.45384 22.3039 6.86218C22.7122 7.27051 22.9161 7.76079 22.9154 8.33301V19.7913C22.9154 20.3643 22.7112 20.8549 22.3029 21.2632C21.8945 21.6716 21.4043 21.8754 20.832 21.8747H4.16537ZM10.4154 6.24968H14.582V4.16634H10.4154V6.24968ZM20.832 15.6247H15.6237V16.6663C15.6237 16.9615 15.5237 17.2091 15.3237 17.409C15.1237 17.609 14.8765 17.7087 14.582 17.708H10.4154C10.1202 17.708 9.87266 17.608 9.67266 17.408C9.47266 17.208 9.37301 16.9608 9.3737 16.6663V15.6247H4.16537V19.7913H20.832V15.6247ZM11.457 15.6247H13.5404V13.5413H11.457V15.6247ZM4.16537 13.5413H9.3737V12.4997C9.3737 12.2045 9.4737 11.957 9.6737 11.757C9.8737 11.557 10.1209 11.4573 10.4154 11.458H14.582C14.8772 11.458 15.1247 11.558 15.3247 11.758C15.5247 11.958 15.6244 12.2052 15.6237 12.4997V13.5413H20.832V8.33301H4.16537V13.5413Z" fill="#333333"/>
</svg>
