<svg width="20" height="20" viewBox="0 0 20 20" fill="none" xmlns="http://www.w3.org/2000/svg">
<g id="fluent:calendar-28-regular">
<path id="Vector" d="M15.5374 2.14258C16.1531 2.14258 16.7435 2.38716 17.1789 2.82251C17.6142 3.25786 17.8588 3.84833 17.8588 4.46401V15.5354C17.8588 16.1511 17.6142 16.7416 17.1789 17.1769C16.7435 17.6123 16.1531 17.8569 15.5374 17.8569H4.46596C3.85028 17.8569 3.25981 17.6123 2.82446 17.1769C2.38911 16.7416 2.14453 16.1511 2.14453 15.5354V4.46401C2.14453 3.84833 2.38911 3.25786 2.82446 2.82251C3.25981 2.38716 3.85028 2.14258 4.46596 2.14258H15.5374ZM16.7874 6.78758H3.21596V15.5354C3.21596 16.2254 3.77596 16.7854 4.46596 16.7854H15.5374C15.8689 16.7854 16.1869 16.6537 16.4213 16.4193C16.6557 16.1849 16.7874 15.867 16.7874 15.5354V6.78758ZM6.25096 12.5004C6.48776 12.5004 6.71486 12.5945 6.88231 12.7619C7.04975 12.9294 7.14382 13.1565 7.14382 13.3933C7.14382 13.6301 7.04975 13.8572 6.88231 14.0246C6.71486 14.1921 6.48776 14.2861 6.25096 14.2861C6.01416 14.2861 5.78706 14.1921 5.61961 14.0246C5.45217 13.8572 5.3581 13.6301 5.3581 13.3933C5.3581 13.1565 5.45217 12.9294 5.61961 12.7619C5.78706 12.5945 6.01416 12.5004 6.25096 12.5004ZM10.0038 12.5004C10.2406 12.5004 10.4677 12.5945 10.6352 12.7619C10.8026 12.9294 10.8967 13.1565 10.8967 13.3933C10.8967 13.6301 10.8026 13.8572 10.6352 14.0246C10.4677 14.1921 10.2406 14.2861 10.0038 14.2861C9.76702 14.2861 9.53992 14.1921 9.37247 14.0246C9.20503 13.8572 9.11096 13.6301 9.11096 13.3933C9.11096 13.1565 9.20503 12.9294 9.37247 12.7619C9.53992 12.5945 9.76702 12.5004 10.0038 12.5004ZM6.25096 8.92901C6.48776 8.92901 6.71486 9.02308 6.88231 9.19052C7.04975 9.35796 7.14382 9.58506 7.14382 9.82186C7.14382 10.0587 7.04975 10.2858 6.88231 10.4532C6.71486 10.6207 6.48776 10.7147 6.25096 10.7147C6.01416 10.7147 5.78706 10.6207 5.61961 10.4532C5.45217 10.2858 5.3581 10.0587 5.3581 9.82186C5.3581 9.58506 5.45217 9.35796 5.61961 9.19052C5.78706 9.02308 6.01416 8.92901 6.25096 8.92901ZM10.0038 8.92901C10.2406 8.92901 10.4677 9.02308 10.6352 9.19052C10.8026 9.35796 10.8967 9.58506 10.8967 9.82186C10.8967 10.0587 10.8026 10.2858 10.6352 10.4532C10.4677 10.6207 10.2406 10.7147 10.0038 10.7147C9.76702 10.7147 9.53992 10.6207 9.37247 10.4532C9.20503 10.2858 9.11096 10.0587 9.11096 9.82186C9.11096 9.58506 9.20503 9.35796 9.37247 9.19052C9.53992 9.02308 9.76702 8.92901 10.0038 8.92901ZM13.7574 8.92901C13.9942 8.92901 14.2213 9.02308 14.3887 9.19052C14.5562 9.35796 14.6502 9.58506 14.6502 9.82186C14.6502 10.0587 14.5562 10.2858 14.3887 10.4532C14.2213 10.6207 13.9942 10.7147 13.7574 10.7147C13.5206 10.7147 13.2935 10.6207 13.126 10.4532C12.9586 10.2858 12.8645 10.0587 12.8645 9.82186C12.8645 9.58506 12.9586 9.35796 13.126 9.19052C13.2935 9.02308 13.5206 8.92901 13.7574 8.92901ZM15.5374 3.21401H4.46596C4.13444 3.21401 3.8165 3.3457 3.58208 3.58012C3.34766 3.81454 3.21596 4.13249 3.21596 4.46401V5.71615H16.7874V4.46401C16.7874 4.13249 16.6557 3.81454 16.4213 3.58012C16.1869 3.3457 15.8689 3.21401 15.5374 3.21401Z" fill="#333333"/>
</g>
</svg>
