<svg width="25" height="25" viewBox="0 0 25 25" fill="none" xmlns="http://www.w3.org/2000/svg">
<g id="basil:check-outline">
<path id="Vector" fill-rule="evenodd" clip-rule="evenodd" d="M18.7799 8.30172C18.9262 8.44821 19.0084 8.64677 19.0084 8.8538C19.0084 9.06084 18.9262 9.2594 18.7799 9.40589L11.4882 16.6976C11.3418 16.8439 11.1432 16.926 10.9362 16.926C10.7291 16.926 10.5306 16.8439 10.3841 16.6976L6.2174 12.5309C6.14065 12.4594 6.07908 12.3731 6.03638 12.2773C5.99368 12.1814 5.97072 12.078 5.96887 11.9731C5.96702 11.8682 5.98632 11.764 6.02561 11.6667C6.0649 11.5694 6.12339 11.4811 6.19757 11.4069C6.27176 11.3327 6.36013 11.2742 6.45741 11.2349C6.55469 11.1956 6.65888 11.1763 6.76378 11.1782C6.86868 11.18 6.97213 11.203 7.06796 11.2457C7.1638 11.2884 7.25005 11.35 7.32157 11.4267L10.9362 15.0413L17.6757 8.30172C17.8222 8.15542 18.0208 8.07324 18.2278 8.07324C18.4349 8.07324 18.6334 8.15542 18.7799 8.30172Z" fill="white"/>
</g>
</svg>
