<svg width="406" height="406" viewBox="0 0 406 406" fill="none" xmlns="http://www.w3.org/2000/svg">
<path fill-rule="evenodd" clip-rule="evenodd" d="M203 367.938C246.744 367.937 288.697 350.56 319.628 319.628C350.56 288.697 367.938 246.744 367.938 203C367.938 159.256 350.56 117.303 319.628 86.3716C288.697 55.4398 246.744 38.0625 203 38.0625C159.256 38.0625 117.303 55.4398 86.3716 86.3716C55.4398 117.303 38.0625 159.256 38.0625 203C38.0625 246.744 55.4398 288.697 86.3716 319.628C117.303 350.56 159.256 367.937 203 367.938ZM203 406C256.839 406 308.473 384.613 346.543 346.543C384.613 308.473 406 256.839 406 203C406 149.161 384.613 97.5272 346.543 59.4573C308.473 21.3874 256.839 0 203 0C149.161 0 97.5272 21.3874 59.4573 59.4573C21.3874 97.5272 0 149.161 0 203C0 256.839 21.3874 308.473 59.4573 346.543C97.5272 384.613 149.161 406 203 406ZM228.375 279.125C228.375 285.855 225.702 292.309 220.943 297.068C216.184 301.827 209.73 304.5 203 304.5C196.27 304.5 189.816 301.827 185.057 297.068C180.298 292.309 177.625 285.855 177.625 279.125C177.625 272.395 180.298 265.941 185.057 261.182C189.816 256.423 196.27 253.75 203 253.75C209.73 253.75 216.184 256.423 220.943 261.182C225.702 265.941 228.375 272.395 228.375 279.125ZM222.031 120.531C222.031 115.484 220.026 110.643 216.457 107.074C212.888 103.505 208.047 101.5 203 101.5C197.953 101.5 193.112 103.505 189.543 107.074C185.974 110.643 183.969 115.484 183.969 120.531V209.344C183.969 214.391 185.974 219.232 189.543 222.801C193.112 226.37 197.953 228.375 203 228.375C208.047 228.375 212.888 226.37 216.457 222.801C220.026 219.232 222.031 214.391 222.031 209.344V120.531Z" fill="#EB5B6C"/>
</svg>
