<svg width="406" height="406" viewBox="0 0 406 406" fill="none" xmlns="http://www.w3.org/2000/svg">
<g clip-path="url(#clip0_2221_1038)">
<path d="M0 203C0 149.161 21.3874 97.5272 59.4573 59.4573C97.5272 21.3874 149.161 0 203 0C256.839 0 308.473 21.3874 346.543 59.4573C384.613 97.5272 406 149.161 406 203C406 256.839 384.613 308.473 346.543 346.543C308.473 384.613 256.839 406 203 406C149.161 406 97.5272 384.613 59.4573 346.543C21.3874 308.473 0 256.839 0 203ZM203 38.0625C159.256 38.0625 117.303 55.4398 86.3716 86.3716C55.4398 117.303 38.0625 159.256 38.0625 203C38.0625 246.744 55.4398 288.697 86.3716 319.628C117.303 350.56 159.256 367.938 203 367.938C246.744 367.938 288.697 350.56 319.628 319.628C350.56 288.697 367.938 246.744 367.938 203C367.938 159.256 350.56 117.303 319.628 86.3716C288.697 55.4398 246.744 38.0625 203 38.0625ZM175.595 154.407C173.34 158.923 169.41 162.358 164.623 163.957C159.835 165.556 154.609 165.187 150.093 162.933C145.577 160.678 142.142 156.722 140.543 151.935C138.944 147.148 139.313 141.921 141.567 137.406C145.855 128.803 152.631 119.618 163.111 112.614C173.692 105.56 186.988 101.5 203 101.5C217.913 101.398 232.467 106.066 244.539 114.822C257.302 124.388 266.438 139.309 266.438 158.594C266.438 169.962 263.519 179.655 258.089 187.775C252.887 195.565 246.163 200.792 240.53 204.573C237.764 206.4 234.947 208.075 232.587 209.521L232.435 209.623C230.203 210.922 228.003 212.276 225.837 213.683C223.12 215.278 220.741 217.39 218.834 219.9C216.009 224.038 211.665 226.896 206.746 227.852C201.827 228.807 196.729 227.784 192.559 225.005C188.39 222.225 185.485 217.913 184.475 213.005C183.465 208.096 184.432 202.988 187.166 198.788C191.835 192.089 197.824 186.379 204.725 182.015C207.339 180.315 209.978 178.665 212.668 177.067L212.845 176.965C215.383 175.417 217.464 174.174 219.392 172.88C222.113 171.278 224.499 169.167 226.421 166.663C227.36 165.293 228.375 163.085 228.375 158.594C228.471 155.994 227.913 153.412 226.751 151.084C225.59 148.756 223.862 146.758 221.727 145.272C216.228 141.473 209.683 139.478 203 139.562C193.637 139.562 187.902 141.846 184.223 144.308C180.509 146.857 177.533 150.341 175.595 154.407ZM228.375 279.125C228.375 285.855 225.702 292.309 220.943 297.068C216.184 301.827 209.73 304.5 203 304.5C196.27 304.5 189.816 301.827 185.057 297.068C180.298 292.309 177.625 285.855 177.625 279.125C177.625 272.395 180.298 265.941 185.057 261.182C189.816 256.423 196.27 253.75 203 253.75C209.73 253.75 216.184 256.423 220.943 261.182C225.702 265.941 228.375 272.395 228.375 279.125Z" fill="#EB5B6C"/>
</g>
<defs>
<clipPath id="clip0_2221_1038">
<rect width="406" height="406" fill="white"/>
</clipPath>
</defs>
</svg>
