<svg width="25" height="25" viewBox="0 0 25 25" fill="none" xmlns="http://www.w3.org/2000/svg">
<path d="M15.4612 20.833H6.76953C5.33307 20.833 4.16536 19.6653 4.16536 18.2288C4.16536 16.7924 5.33307 15.6247 6.76953 15.6247H14.0612C16.0716 15.6247 17.707 13.9893 17.707 11.9788C17.707 9.96843 16.0716 8.33301 14.0612 8.33301H8.99766C8.61511 9.08289 8.14138 9.78263 7.58724 10.4163H14.0612C14.9227 10.4163 15.6237 11.1174 15.6237 11.9788C15.6237 12.8403 14.9227 13.5413 14.0612 13.5413H6.76953C4.18516 13.5413 2.08203 15.6445 2.08203 18.2288C2.08203 20.8132 4.18516 22.9163 6.76953 22.9163H16.7622C16.2511 22.2734 15.8146 21.5745 15.4612 20.833ZM5.20703 2.08301C3.48411 2.08301 2.08203 3.48509 2.08203 5.20801C2.08203 8.52884 5.20703 10.4163 5.20703 10.4163C5.20703 10.4163 8.33203 8.5278 8.33203 5.20801C8.33203 3.48509 6.92995 2.08301 5.20703 2.08301ZM5.20703 6.77051C5.00177 6.77044 4.79854 6.72994 4.60893 6.65133C4.41932 6.57272 4.24705 6.45753 4.10196 6.31234C3.95687 6.16715 3.8418 5.99481 3.76331 5.80515C3.68482 5.61549 3.64446 5.41223 3.64453 5.20697C3.6446 5.00171 3.6851 4.79847 3.76371 4.60886C3.84232 4.41926 3.95751 4.24699 4.1027 4.1019C4.24789 3.9568 4.42023 3.84173 4.60989 3.76324C4.79955 3.68476 5.00281 3.6444 5.20807 3.64447C5.62261 3.6446 6.02012 3.80941 6.31314 4.10263C6.60617 4.39585 6.77071 4.79347 6.77057 5.20801C6.77043 5.62255 6.60563 6.02005 6.31241 6.31308C6.01919 6.6061 5.62157 6.77065 5.20703 6.77051Z" fill="#333333"/>
<path d="M20.832 14.583C19.1091 14.583 17.707 15.9851 17.707 17.708C17.707 21.0288 20.832 22.9163 20.832 22.9163C20.832 22.9163 23.957 21.0278 23.957 17.708C23.957 15.9851 22.5549 14.583 20.832 14.583ZM20.832 19.2705C20.6268 19.2704 20.4235 19.2299 20.2339 19.1513C20.0443 19.0727 19.8721 18.9575 19.727 18.8123C19.5819 18.6672 19.4668 18.4948 19.3883 18.3051C19.3098 18.1155 19.2695 17.9122 19.2695 17.707C19.2696 17.5017 19.3101 17.2985 19.3887 17.1089C19.4673 16.9193 19.5825 16.747 19.7277 16.6019C19.8729 16.4568 20.0452 16.3417 20.2349 16.2632C20.4246 16.1848 20.6278 16.1444 20.8331 16.1445C21.2476 16.1446 21.6451 16.3094 21.9381 16.6026C22.2312 16.8959 22.3957 17.2935 22.3956 17.708C22.3954 18.1225 22.2306 18.5201 21.9374 18.8131C21.6442 19.1061 21.2466 19.2706 20.832 19.2705Z" fill="#333333"/>
</svg>
