<svg width="20" height="21" viewBox="0 0 20 21" fill="none" xmlns="http://www.w3.org/2000/svg">
<g id="bx:trip">
<path id="Vector" d="M12.3674 17.166H5.41406C4.2649 17.166 3.33073 16.2318 3.33073 15.0827C3.33073 13.9335 4.2649 12.9993 5.41406 12.9993H11.2474C12.8557 12.9993 14.1641 11.691 14.1641 10.0827C14.1641 8.47435 12.8557 7.16602 11.2474 7.16602H7.19656C6.89052 7.76592 6.51154 8.32571 6.06823 8.83268H11.2474C11.9366 8.83268 12.4974 9.39352 12.4974 10.0827C12.4974 10.7718 11.9366 11.3327 11.2474 11.3327H5.41406C3.34656 11.3327 1.66406 13.0152 1.66406 15.0827C1.66406 17.1502 3.34656 18.8327 5.41406 18.8327H13.4082C12.9993 18.3183 12.6501 17.7592 12.3674 17.166ZM4.16406 2.16602C2.78573 2.16602 1.66406 3.28768 1.66406 4.66602C1.66406 7.32268 4.16406 8.83268 4.16406 8.83268C4.16406 8.83268 6.66406 7.32185 6.66406 4.66602C6.66406 3.28768 5.5424 2.16602 4.16406 2.16602ZM4.16406 5.91602C3.99986 5.91596 3.83727 5.88356 3.68558 5.82067C3.53389 5.75778 3.39608 5.66563 3.28001 5.54948C3.16393 5.43333 3.07187 5.29546 3.00909 5.14373C2.9463 4.992 2.91401 4.82939 2.91406 4.66518C2.91412 4.50098 2.94651 4.33839 3.0094 4.1867C3.07229 4.03501 3.16445 3.8972 3.2806 3.78113C3.39675 3.66505 3.53462 3.57299 3.68635 3.51021C3.83808 3.44742 4.00069 3.41513 4.1649 3.41518C4.49653 3.41529 4.81453 3.54714 5.04895 3.78172C5.28337 4.01629 5.41501 4.33438 5.4149 4.66602C5.41479 4.99765 5.28294 5.31565 5.04836 5.55007C4.81379 5.78449 4.49569 5.91613 4.16406 5.91602Z" fill="#333333"/>
<path id="Vector_2" d="M15.8359 12.166C14.4576 12.166 13.3359 13.2877 13.3359 14.666C13.3359 17.3227 15.8359 18.8327 15.8359 18.8327C15.8359 18.8327 18.3359 17.3218 18.3359 14.666C18.3359 13.2877 17.2143 12.166 15.8359 12.166ZM15.8359 15.916C15.6717 15.916 15.5091 15.8836 15.3575 15.8207C15.2058 15.7578 15.068 15.6656 14.9519 15.5495C14.8358 15.4333 14.7437 15.2955 14.681 15.1437C14.6182 14.992 14.5859 14.8294 14.5859 14.6652C14.586 14.501 14.6184 14.3384 14.6813 14.1867C14.7442 14.035 14.8363 13.8972 14.9525 13.7811C15.0686 13.6651 15.2065 13.573 15.3582 13.5102C15.51 13.4474 15.6726 13.4151 15.8368 13.4152C16.1684 13.4153 16.4864 13.5471 16.7208 13.7817C16.9552 14.0163 17.0869 14.3344 17.0868 14.666C17.0867 14.9976 16.9548 15.3157 16.7202 15.5501C16.4857 15.7845 16.1676 15.9161 15.8359 15.916Z" fill="#333333"/>
</g>
</svg>
